<?xml version="1.0" standalone="no"?>
<!DOCTYPE svg PUBLIC "-//W3C//DTD SVG 20010904//EN"
 "http://www.w3.org/TR/2001/REC-SVG-20010904/DTD/svg10.dtd">
<svg version="1.0" xmlns="http://www.w3.org/2000/svg"
 width="137.000000pt" height="137.000000pt" viewBox="0 0 137.000000 137.000000"
 preserveAspectRatio="xMidYMid meet">

<g transform="translate(0.000000,137.000000) scale(0.100000,-0.100000)"
fill="#000000" stroke="none">
<path d="M120 1366 c0 -2 7 -6 15 -10 8 -3 15 -1 15 4 0 6 -7 10 -15 10 -8 0
-15 -2 -15 -4z"/>
<path d="M327 1349 c3 -10 9 -16 14 -13 13 8 11 21 -5 27 -10 4 -12 0 -9 -14z"/>
<path d="M1080 1360 c0 -5 5 -10 10 -10 6 0 10 5 10 10 0 6 -4 10 -10 10 -5 0
-10 -4 -10 -10z"/>
<path d="M1045 1340 c-3 -5 -1 -10 4 -10 6 0 11 5 11 10 0 6 -2 10 -4 10 -3 0
-8 -4 -11 -10z"/>
<path d="M1110 1308 c0 -18 18 -34 28 -24 3 4 -2 14 -11 23 -16 16 -17 16 -17
1z"/>
<path d="M227 1293 c-11 -10 -8 -45 2 -38 6 3 9 14 8 25 -1 23 -1 22 -10 13z"/>
<path d="M1024 1255 c43 -38 46 -51 7 -31 -16 9 -31 12 -35 9 -3 -4 -6 -2 -6
4 0 6 -7 13 -15 17 -25 9 27 -54 57 -70 46 -24 75 -15 46 14 -9 9 -9 12 1 12
24 0 53 -22 47 -36 -3 -8 1 -14 9 -14 8 0 15 3 15 8 0 12 -37 64 -44 62 -15
-5 -48 9 -42 18 8 13 -13 28 -48 35 l-28 5 36 -33z"/>
<path d="M881 1257 c-13 -21 -12 -21 5 -5 10 10 16 20 13 22 -3 3 -11 -5 -18
-17z"/>
<path d="M336 1237 c3 -8 -2 -17 -11 -21 -10 -3 -15 -12 -12 -20 3 -8 -1 -13
-11 -12 -13 1 -16 -6 -14 -26 3 -22 -1 -28 -15 -28 -16 0 -19 -8 -18 -42 0
-40 -2 -43 -29 -46 -26 -3 -28 -6 -22 -35 4 -19 3 -27 -3 -19 -7 11 -9 11 -14
-2 -4 -9 -14 -16 -24 -16 -13 0 -14 -3 -5 -12 7 -7 12 -20 12 -30 0 -10 5 -18
11 -18 7 0 9 11 6 30 -5 23 -3 30 9 30 11 0 14 -6 9 -22 -5 -19 -3 -18 10 5 9
15 20 27 26 27 6 0 8 9 4 21 -6 19 -5 20 15 9 12 -7 19 -18 16 -26 -6 -16 10
-19 19 -3 4 6 13 8 21 5 8 -3 11 0 7 10 -3 7 0 14 6 14 6 0 17 11 23 25 6 14
22 28 35 31 21 6 23 11 22 63 -1 31 -4 44 -6 29 -2 -16 -9 -28 -14 -28 -12 0
-12 57 1 65 6 3 10 12 10 18 0 7 -12 -1 -25 -16 l-25 -28 0 35 c0 19 -4 38
-10 41 -5 3 -7 0 -4 -8z m-9 -99 c-3 -8 -6 -5 -6 6 -1 11 2 17 5 13 3 -3 4
-12 1 -19z m57 -14 c23 -9 20 -24 -5 -24 -11 0 -18 -4 -14 -9 3 -5 1 -12 -4
-15 -16 -11 -22 12 -9 34 7 11 14 20 15 20 1 0 8 -3 17 -6z m-79 -104 c3 -5 1
-10 -4 -10 -6 0 -11 5 -11 10 0 6 2 10 4 10 3 0 8 -4 11 -10z"/>
<path d="M211 1206 c-15 -18 -10 -29 12 -24 9 2 12 9 8 21 -6 17 -8 18 -20 3z"/>
<path d="M130 1200 c0 -5 5 -10 10 -10 6 0 10 5 10 10 0 6 -4 10 -10 10 -5 0
-10 -4 -10 -10z"/>
<path d="M243 1184 c-6 -13 -7 -22 -2 -18 5 3 9 -3 10 -13 0 -15 2 -14 9 3 5
12 13 25 19 29 17 10 13 21 -7 22 -9 1 -22 -9 -29 -23z"/>
<path d="M1200 1190 c0 -5 9 -10 20 -10 11 0 20 5 20 10 0 6 -9 10 -20 10 -11
0 -20 -4 -20 -10z"/>
<path d="M1250 1190 c0 -5 5 -10 10 -10 6 0 10 5 10 10 0 6 -4 10 -10 10 -5 0
-10 -4 -10 -10z"/>
<path d="M1295 1160 c10 -11 20 -20 23 -20 3 0 -3 9 -13 20 -10 11 -20 20 -23
20 -3 0 3 -9 13 -20z"/>
<path d="M1255 1130 c-8 -13 5 -13 25 0 13 8 13 10 -2 10 -9 0 -20 -4 -23 -10z"/>
<path d="M1340 1131 c0 -6 5 -13 10 -16 6 -3 10 1 10 9 0 9 -4 16 -10 16 -5 0
-10 -4 -10 -9z"/>
<path d="M196 1105 c-3 -10 -12 -15 -20 -12 -8 3 -20 -1 -26 -9 -7 -8 -9 -14
-4 -14 5 0 2 -5 -6 -10 -13 -8 -12 -10 4 -10 12 0 16 5 13 14 -4 10 -1 13 9 9
17 -6 74 15 74 29 0 5 -5 6 -11 2 -6 -3 -15 -1 -19 6 -5 8 -9 7 -14 -5z"/>
<path d="M1285 1107 c-17 -13 -17 -14 6 -21 13 -4 38 -9 54 -11 28 -4 29 -3 8
7 -13 6 -23 17 -23 25 0 17 -21 17 -45 0z"/>
<path d="M105 1100 c3 -5 8 -10 11 -10 2 0 4 5 4 10 0 6 -5 10 -11 10 -5 0 -7
-4 -4 -10z"/>
<path d="M1081 1097 c2 -1 13 -9 24 -17 19 -14 19 -14 6 3 -7 9 -18 17 -24 17
-6 0 -8 -1 -6 -3z"/>
<path d="M1235 1090 c-3 -5 -1 -10 4 -10 6 0 11 5 11 10 0 6 -2 10 -4 10 -3 0
-8 -4 -11 -10z"/>
<path d="M212 1065 c-17 -19 -1 -19 24 0 14 11 15 14 4 14 -8 0 -21 -6 -28
-14z"/>
<path d="M930 1070 c0 -5 5 -10 10 -10 6 0 10 5 10 10 0 6 -4 10 -10 10 -5 0
-10 -4 -10 -10z"/>
<path d="M438 1043 c0 -5 -2 -13 -2 -18 -1 -6 -9 -20 -18 -33 -11 -16 -18 -20
-23 -12 -4 7 -2 15 4 19 10 7 6 41 -5 41 -12 0 -46 -41 -64 -76 -12 -21 -18
-29 -15 -16 9 31 -13 28 -25 -4 -14 -36 -14 -37 28 -29 20 4 43 8 49 8 10 0
10 4 1 14 -20 24 -3 23 26 -2 36 -31 52 -32 60 -2 11 41 7 54 -10 32 -16 -19
-16 -19 -9 5 4 14 12 27 16 28 12 5 11 52 -1 52 -5 0 -11 -3 -12 -7z"/>
<path d="M1096 1031 c-11 -12 -17 -22 -15 -24 2 -2 22 -17 45 -35 28 -21 44
-28 51 -21 7 7 12 5 16 -5 5 -13 -1 -16 -31 -17 -32 -1 -33 -2 -12 -8 14 -3
57 -6 95 -4 53 1 73 -2 82 -14 11 -14 13 -14 27 0 17 17 22 57 7 57 -5 0 -16
3 -25 6 -10 4 -16 1 -16 -9 0 -13 -5 -14 -29 -6 -23 8 -27 14 -23 36 4 24 3
25 -22 19 -19 -5 -28 -2 -32 9 -7 16 -30 20 -36 6 -5 -15 -57 -1 -60 16 -2 12
-7 11 -22 -6z m144 -77 c0 -2 -9 -4 -20 -4 -11 0 -20 4 -20 9 0 5 9 7 20 4 11
-3 20 -7 20 -9z m27 -20 c-3 -3 -12 -4 -19 -1 -8 3 -5 6 6 6 11 1 17 -2 13 -5z
m83 -14 c0 -5 -4 -10 -10 -10 -5 0 -10 5 -10 10 0 6 5 10 10 10 6 0 10 -4 10
-10z"/>
<path d="M950 1010 c-12 -8 -10 -10 8 -10 13 0 20 4 17 10 -7 12 -6 12 -25 0z"/>
<path d="M130 990 c0 -5 5 -10 10 -10 6 0 10 5 10 10 0 6 -4 10 -10 10 -5 0
-10 -4 -10 -10z"/>
<path d="M902 988 c-1 -10 -5 -18 -10 -18 -13 0 -34 -42 -25 -51 19 -19 45 15
40 51 -2 19 -5 27 -5 18z"/>
<path d="M249 965 c-6 -10 9 -80 16 -74 1 2 0 22 -4 44 -3 22 -9 36 -12 30z"/>
<path d="M1288 963 c7 -3 16 -2 19 1 4 3 -2 6 -13 5 -11 0 -14 -3 -6 -6z"/>
<path d="M1038 923 c12 -2 32 -2 45 0 12 2 2 4 -23 4 -25 0 -35 -2 -22 -4z"/>
<path d="M80 901 c0 -6 -9 -11 -21 -11 -11 0 -17 -4 -14 -10 4 -6 -5 -10 -20
-10 -24 0 -26 -3 -23 -32 2 -21 9 -34 18 -34 8 -1 21 -2 28 -3 6 0 12 -5 12
-11 0 -5 -6 -10 -12 -10 -7 0 -19 -4 -27 -9 -12 -8 -7 -16 22 -44 19 -19 37
-33 40 -31 3 4 1 -34 -3 -46 -1 -3 -5 6 -9 20 -4 15 -14 24 -24 24 -9 -1 -17
4 -17 12 0 22 -17 16 -24 -8 -21 -80 5 -140 54 -128 29 8 28 25 -3 59 l-22 24
24 -6 c14 -3 30 -2 37 4 13 11 46 1 38 -12 -3 -5 -14 -9 -25 -9 -10 0 -19 -4
-19 -9 0 -13 54 0 63 15 4 8 26 17 47 20 42 7 52 19 23 28 -10 3 11 4 46 2
l64 -2 -27 23 c-15 13 -33 23 -41 23 -20 0 -65 22 -65 32 0 4 15 8 32 8 32 0
32 0 11 15 -11 8 -42 16 -67 18 -53 5 -56 7 -59 36 -1 13 -8 21 -19 21 -26 0
-22 18 5 22 12 2 22 8 22 13 0 6 -10 11 -22 13 -13 2 -23 -1 -23 -7z m-10
-141 c0 -5 -4 -10 -10 -10 -5 0 -10 5 -10 10 0 6 5 10 10 10 6 0 10 -4 10 -10z
m118 -9 c3 -8 -1 -12 -9 -9 -7 2 -15 10 -17 17 -3 8 1 12 9 9 7 -2 15 -10 17
-17z m-78 -21 c0 -5 -4 -10 -10 -10 -5 0 -10 5 -10 10 0 6 5 10 10 10 6 0 10
-4 10 -10z m50 -6 c0 -8 -19 -13 -24 -6 -3 5 1 9 9 9 8 0 15 -2 15 -3z m38
-36 c-5 -15 -58 -24 -58 -9 0 11 17 19 43 20 11 1 17 -4 15 -11z m-78 -8 c0
-5 -2 -10 -4 -10 -3 0 -8 5 -11 10 -3 6 -1 10 4 10 6 0 11 -4 11 -10z"/>
<path d="M635 900 c-3 -6 1 -7 9 -4 9 3 29 1 46 -4 16 -6 30 -7 30 -3 0 18
-75 28 -85 11z"/>
<path d="M225 890 c3 -5 8 -10 11 -10 2 0 4 5 4 10 0 6 -5 10 -11 10 -5 0 -7
-4 -4 -10z"/>
<path d="M736 884 c-8 -22 -8 -26 4 -19 6 3 10 0 11 -7 0 -12 17 18 18 35 2
14 -27 7 -33 -9z"/>
<path d="M1220 880 c0 -5 5 -10 11 -10 5 0 7 5 4 10 -3 6 -8 10 -11 10 -2 0
-4 -4 -4 -10z"/>
<path d="M1200 816 c7 -7 13 -7 20 0 6 6 3 10 -10 10 -13 0 -16 -4 -10 -10z"/>
<path d="M1246 804 c-9 -24 -7 -28 9 -14 17 14 20 30 6 30 -5 0 -12 -7 -15
-16z"/>
<path d="M826 795 c-3 -9 1 -18 10 -22 19 -7 26 0 18 21 -8 20 -20 21 -28 1z"/>
<path d="M1000 790 c0 -5 5 -10 10 -10 6 0 10 5 10 10 0 6 -4 10 -10 10 -5 0
-10 -4 -10 -10z"/>
<path d="M785 780 c-3 -5 -1 -10 4 -10 6 0 11 5 11 10 0 6 -2 10 -4 10 -3 0
-8 -4 -11 -10z"/>
<path d="M895 780 c-3 -5 1 -10 9 -10 9 0 16 5 16 10 0 6 -4 10 -9 10 -6 0
-13 -4 -16 -10z"/>
<path d="M936 781 c-4 -5 -2 -12 3 -15 5 -4 12 -2 15 3 4 5 2 12 -3 15 -5 4
-12 2 -15 -3z"/>
<path d="M1180 760 c0 -5 -8 -10 -18 -10 -25 0 -42 -36 -43 -90 -1 -69 1 -78
18 -84 12 -5 14 -1 10 20 -2 14 0 27 7 30 12 4 20 44 9 44 -2 0 -13 -10 -24
-22 -10 -13 -18 -17 -19 -10 0 6 5 12 10 12 6 0 10 6 10 14 0 20 21 31 30 16
11 -17 44 -8 48 14 3 16 0 18 -22 12 -30 -7 -36 13 -11 38 17 17 19 26 5 26
-5 0 -10 -4 -10 -10z"/>
<path d="M900 714 c0 -8 5 -12 10 -9 6 4 8 11 5 16 -9 14 -15 11 -15 -7z"/>
<path d="M1320 707 c0 -10 -7 -29 -16 -42 -10 -15 -12 -25 -5 -25 6 0 11 5 11
12 0 6 7 19 14 27 10 11 12 21 6 31 -8 13 -10 12 -10 -3z"/>
<path d="M1270 690 c0 -5 5 -10 11 -10 5 0 7 5 4 10 -3 6 -8 10 -11 10 -2 0
-4 -4 -4 -10z"/>
<path d="M1040 670 c0 -11 2 -20 4 -20 2 0 6 9 9 20 3 11 1 20 -4 20 -5 0 -9
-9 -9 -20z"/>
<path d="M917 615 c-3 -22 -3 -66 0 -98 5 -50 9 -57 27 -57 12 0 17 4 11 8
-14 10 -18 39 -6 46 5 4 17 -1 26 -10 9 -9 19 -13 23 -9 4 4 1 10 -5 12 -7 3
-13 10 -13 18 0 7 -6 18 -14 24 -16 13 -13 54 4 59 12 4 14 42 3 43 -5 0 -18
2 -29 3 -18 2 -23 -4 -27 -39z"/>
<path d="M1205 649 c-4 -6 -5 -12 -2 -15 2 -3 7 2 10 11 7 17 1 20 -8 4z"/>
<path d="M1000 630 c0 -5 5 -10 10 -10 6 0 10 5 10 10 0 6 -4 10 -10 10 -5 0
-10 -4 -10 -10z"/>
<path d="M1232 610 c0 -14 2 -19 5 -12 2 6 2 18 0 25 -3 6 -5 1 -5 -13z"/>
<path d="M1180 606 c0 -9 7 -16 16 -16 17 0 14 22 -4 28 -7 2 -12 -3 -12 -12z"/>
<path d="M1085 600 c4 -6 11 -8 16 -5 14 9 11 15 -7 15 -8 0 -12 -5 -9 -10z"/>
<path d="M115 540 c-3 -5 1 -10 9 -10 9 0 16 5 16 10 0 6 -4 10 -9 10 -6 0
-13 -4 -16 -10z"/>
<path d="M82 510 c0 -14 2 -19 5 -12 2 6 2 18 0 25 -3 6 -5 1 -5 -13z"/>
<path d="M1106 521 c-3 -5 1 -12 10 -15 25 -10 34 -7 34 9 0 16 -35 21 -44 6z"/>
<path d="M1033 463 c9 -2 25 -2 35 0 9 3 1 5 -18 5 -19 0 -27 -2 -17 -5z"/>
<path d="M477 448 c2 -5 11 -8 19 -8 8 0 14 -5 14 -11 0 -7 -10 -9 -25 -5
l-25 6 0 -95 c0 -55 4 -95 10 -95 5 0 7 6 4 13 -6 16 36 37 75 37 17 0 31 7
35 16 4 11 14 15 31 11 14 -2 28 0 31 4 7 12 -81 49 -123 53 -18 1 -36 6 -40
10 -11 11 18 26 50 26 20 0 27 5 27 19 0 15 -9 20 -44 22 -24 2 -42 1 -39 -3z
m42 -127 c12 -8 9 -11 -12 -17 -30 -7 -43 -1 -32 15 8 13 25 14 44 2z"/>
<path d="M590 435 c7 -9 15 -13 17 -11 7 7 -7 26 -19 26 -6 0 -6 -6 2 -15z"/>
<path d="M621 413 c0 -5 4 -17 9 -28 8 -18 9 -17 9 8 1 15 -3 27 -9 27 -5 0
-10 -3 -9 -7z"/>
<path d="M500 390 c0 -5 5 -10 10 -10 6 0 10 5 10 10 0 6 -4 10 -10 10 -5 0
-10 -4 -10 -10z"/>
<path d="M1248 363 c7 -3 16 -2 19 1 4 3 -2 6 -13 5 -11 0 -14 -3 -6 -6z"/>
<path d="M1286 349 c3 -5 12 -9 21 -9 9 0 13 -6 9 -15 -4 -11 2 -15 20 -15 21
0 44 24 33 34 -10 8 -88 13 -83 5z"/>
<path d="M1352 266 c7 -8 15 -12 17 -11 5 6 -10 25 -20 25 -5 0 -4 -6 3 -14z"/>
<path d="M235 249 c-4 -6 -5 -12 -2 -15 2 -3 7 2 10 11 7 17 1 20 -8 4z"/>
<path d="M240 190 c0 -11 -4 -20 -10 -20 -5 0 -10 -7 -10 -15 0 -7 -7 -18 -16
-23 -10 -5 -14 -18 -12 -33 3 -22 6 -20 26 19 33 62 43 92 32 92 -6 0 -10 -9
-10 -20z"/>
<path d="M129 34 c-16 -17 -18 -23 -7 -19 9 4 19 13 22 22 5 12 9 13 21 3 13
-11 14 -10 9 4 -8 22 -16 20 -45 -10z"/>
<path d="M256 35 c-3 -8 -1 -15 3 -15 5 0 11 7 15 15 3 8 1 15 -3 15 -5 0 -11
-7 -15 -15z"/>
</g>
</svg>
